<?xml version="1.0" encoding="utf-8"?>
<!-- Generator: Adobe Illustrator 24.3.0, SVG Export Plug-In . SVG Version: 6.00 Build 0)  -->
<svg version="1.1" xmlns="http://www.w3.org/2000/svg" xmlns:xlink="http://www.w3.org/1999/xlink" x="0px" y="0px"
	 viewBox="0 0 1016.81 48.14" style="enable-background:new 0 0 1016.81 48.14;" xml:space="preserve">
<style type="text/css">
	.st0{display:none;}
	.st1{fill:none;stroke:#FF8A1B;stroke-width:10;stroke-linecap:round;stroke-miterlimit:10;}
	.st2{fill:none;stroke:#FF8A1B;stroke-width:10;stroke-miterlimit:10;}
	.st3{fill:none;stroke:#000000;stroke-width:6;stroke-miterlimit:10;}
	.st4{fill:#FFFFFF;}
	.st5{fill:#FF8A1B;}
	.st6{fill:#FF3B3B;}
	.st7{fill:#767676;}
	.st8{fill:#333333;}
	.st9{fill:#86AF4B;}
	.st10{clip-path:url(#XMLID_124_);fill:#FF3B3B;}
	.st11{fill:#EE0D1B;}
	.st12{fill:#37A5A2;}
	.st13{fill:#4EB7B7;}
	.st14{fill:#F38730;}
	.st15{fill:#FFA055;}
	.st16{fill:#FFC555;}
	.st17{fill:#FFD178;}
	.st18{fill:#2E53A3;}
	.st19{fill:#486AB3;}
	.st20{fill:#098047;}
	.st21{fill:#17A05E;}
	.st22{fill:none;stroke:#FFFFFF;stroke-linecap:round;stroke-linejoin:round;stroke-miterlimit:10;}
	.st23{fill:none;stroke:#FFFFFF;stroke-miterlimit:10;}
	.st24{fill:none;stroke:#FFFFFF;stroke-linecap:round;stroke-miterlimit:10;}
	.st25{fill:#1E1E1E;}
	.st26{display:none;opacity:0.9;}
	.st27{opacity:0.9;}
	.st28{display:inline;}
	.st29{display:inline;clip-path:url(#XMLID_125_);}
	.st30{fill:none;stroke:#86AF4B;stroke-width:3;stroke-linecap:round;stroke-linejoin:round;stroke-miterlimit:10;}
	.st31{fill:none;stroke:#FFFFFF;stroke-width:2;stroke-linecap:round;stroke-linejoin:round;stroke-miterlimit:10;}
	.st32{fill:none;stroke:#86AF4B;stroke-width:2;stroke-linecap:round;stroke-linejoin:round;stroke-miterlimit:10;}
	.st33{fill:none;stroke:#86AF4B;stroke-width:2;stroke-linecap:round;stroke-miterlimit:10;}
	.st34{fill:none;stroke:#86AF4B;stroke-linecap:round;stroke-linejoin:round;stroke-miterlimit:10;}
	.st35{opacity:0.86;}
	.st36{fill:none;stroke:#333333;stroke-miterlimit:10;}
</style>
<g id="Warstwa_1" class="st0">
</g>
<g id="Warstwa_2">
</g>
<g id="Warstwa_3">
</g>
<g id="Warstwa_4">
	<g>
		<g>
			<path d="M21.25,0.85c-4.49-1.85-10.08-0.58-13.4,2.96C4.3,7.6,3.88,13.47,6.37,17.96c2.67,4.81,7.82,5.6,12.35,7.83
				c2.32,1.14,4.11,2.85,4.45,5.53c0.35,2.72-0.74,5.4-2.53,7.42c-2.18,2.46-5.29,4.42-8.52,5.08c-2.94,0.6-6.74-0.26-7.97-3.34
				c-0.98-2.45-4.99-1.38-4,1.1c5.21,13.08,24.6,4.4,26.9-6.4c1.24-5.79-1.57-10.87-6.89-13.26c-4.66-2.09-10.62-3.15-11.22-9.27
				C8.34,6.46,14.7,2.6,20.15,4.84C22.61,5.86,23.69,1.85,21.25,0.85L21.25,0.85z"/>
		</g>
		<g>
			<path d="M67.53,42.81c2.99-13.14,7.41-25.91,13.23-38.06c-1.19,0-2.39,0-3.58,0c5.88,11.93,10.41,24.46,13.57,37.38
				c0.63,2.59,4.63,1.49,4-1.1C91.51,27.76,86.8,14.9,80.77,2.66c-0.66-1.34-2.92-1.37-3.58,0c-5.98,12.47-10.58,25.56-13.65,39.05
				C62.95,44.31,66.94,45.41,67.53,42.81L67.53,42.81z"/>
		</g>
		<g>
			<path d="M70.75,28.57c6.09,0.19,12.18,0.39,18.27,0.58c0-1.38,0-2.76,0-4.14c-0.45,0-0.9,0.01-1.35,0.01
				c-2.67,0.02-2.67,4.16,0,4.14c0.45,0,0.9-0.01,1.35-0.01c2.67-0.02,2.66-4.06,0-4.14c-6.09-0.19-12.18-0.39-18.27-0.58
				C68.09,24.34,68.09,28.49,70.75,28.57L70.75,28.57z"/>
		</g>
		<g>
			<path d="M366.8,42.81c2.99-13.14,7.41-25.91,13.23-38.06c-1.19,0-2.39,0-3.58,0c5.88,11.93,10.41,24.46,13.57,37.38
				c0.63,2.59,4.63,1.49,4-1.1c-3.24-13.26-7.95-26.12-13.99-38.37c-0.66-1.34-2.92-1.37-3.58,0
				c-5.98,12.47-10.58,25.56-13.65,39.05C362.21,44.31,366.21,45.41,366.8,42.81L366.8,42.81z"/>
		</g>
		<g>
			<path d="M370.02,28.57c6.09,0.19,12.18,0.39,18.27,0.58c0-1.38,0-2.76,0-4.14c-0.45,0-0.9,0.01-1.35,0.01
				c-2.67,0.02-2.67,4.16,0,4.14c0.45,0,0.9-0.01,1.35-0.01c2.67-0.02,2.66-4.06,0-4.14c-6.09-0.19-12.18-0.39-18.27-0.58
				C367.35,24.34,367.36,28.49,370.02,28.57L370.02,28.57z"/>
		</g>
		<g>
			<path d="M154,7.1c0.05,11.6,0.1,23.2,0.14,34.8c0.01,2.67,4.16,2.67,4.14,0c-0.05-11.6-0.1-23.2-0.14-34.8
				C158.13,4.44,153.98,4.43,154,7.1L154,7.1z"/>
		</g>
		<g>
			<path d="M156.77,43.86c3.78,0.61,7.62,1.2,11.42,0.4c3.07-0.65,5.87-2.43,7.68-5c1.86-2.64,2.03-6.01,0.69-8.91
				c-1.32-2.87-4.02-4.94-6.92-6.03c-3.84-1.45-8.1-1.07-12.09-0.68c-1.11,0.11-2.07,0.87-2.07,2.07c0,1.04,0.95,2.18,2.07,2.07
				c4.89-0.48,11.29-1.17,14.6,3.23c1.26,1.67,1.56,3.66,0.6,5.41c-1,1.82-2.89,3.1-4.9,3.66c-3.25,0.9-6.73,0.32-9.99-0.21
				c-1.1-0.18-2.23,0.29-2.55,1.45C155.05,42.3,155.66,43.68,156.77,43.86L156.77,43.86z"/>
		</g>
		<g>
			<path d="M155.77,8.85c4.56-0.19,10.16,0.59,12.74,4.89c1.04,1.73,1.44,4.01,0.56,5.87c-0.82,1.75-2.55,2.77-4.33,2.68
				c-1.12-0.05-2.07,0.99-2.07,2.07c0,1.16,0.95,2.02,2.07,2.07c3.11,0.14,6.08-1.66,7.66-4.29c1.74-2.89,1.57-6.52,0.2-9.51
				c-2.91-6.34-10.47-8.2-16.84-7.94c-1.12,0.05-2.07,0.92-2.07,2.07C153.7,7.86,154.65,8.89,155.77,8.85L155.77,8.85z"/>
		</g>
		<g>
			<path d="M233.59,8.87c0.57,11.2,1.13,22.41,1.7,33.61c0.13,2.65,4.28,2.67,4.14,0c-0.57-11.2-1.13-22.41-1.7-33.61
				C237.6,6.22,233.45,6.2,233.59,8.87L233.59,8.87z"/>
		</g>
		<g>
			<path d="M294.29,39.67c0.28-10.92,0.55-21.83,0.83-32.75c-1.18,0.49-2.36,0.98-3.54,1.47c8.59,10.01,16.06,20.91,22.36,32.5
				c0.81,1.5,3.44,1.27,3.79-0.5c2.22-11.33,3.02-22.89,2.29-34.41c-0.17-2.65-4.31-2.67-4.14,0c0.7,11.16,0.01,22.34-2.15,33.31
				c1.26-0.17,2.53-0.33,3.79-0.5c-6.46-11.9-14.19-23.06-23-33.33c-1.22-1.43-3.49-0.22-3.54,1.47
				c-0.28,10.92-0.55,21.83-0.83,32.75C290.07,42.33,294.22,42.33,294.29,39.67L294.29,39.67z"/>
		</g>
		<g>
			<path d="M509.38,5.64c0.4,12.22,0.8,24.45,1.2,36.67c0.09,2.66,4.23,2.67,4.14,0c-0.4-12.22-0.8-24.45-1.2-36.67
				C513.44,2.98,509.29,2.97,509.38,5.64L509.38,5.64z"/>
		</g>
		<g>
			<path d="M511.88,9.01c3.87-1.25,7.88-1.78,11.95-1.51c2.8,0.19,6.02,0.78,8.15,2.74c2.2,2.02,2.5,5.14,1.28,7.79
				c-1.34,2.93-4.24,4.75-7.24,5.64c-4.28,1.28-8.83,0.85-13.22,0.48c-2.66-0.22-2.64,3.92,0,4.14c8.29,0.69,19.41,0.78,23.88-7.86
				c1.81-3.5,2.07-8.02-0.26-11.36c-2.24-3.21-6-4.82-9.77-5.4c-5.31-0.82-10.78-0.31-15.88,1.34
				C508.25,5.83,509.33,9.83,511.88,9.01L511.88,9.01z"/>
		</g>
		<g>
			<path d="M523.3,29.55c3.57,4.44,7.15,8.89,10.72,13.33c0.7,0.87,2.2,0.73,2.93,0c0.86-0.86,0.7-2.06,0-2.93
				c-3.57-4.44-7.15-8.89-10.72-13.33c-0.7-0.87-2.2-0.73-2.93,0C522.43,27.48,522.59,28.68,523.3,29.55L523.3,29.55z"/>
		</g>
		<g>
			<path d="M584.7,14.17c-0.54,5.48-1.08,11.25,0.7,16.57c1.4,4.21,4.27,8.22,8.37,10.13c9.09,4.24,18.19-3.47,20.6-12.03
				c1.68-5.95,0.97-12.21,0.22-18.25c-0.14-1.12-0.85-2.06-2.07-2.07c-1.01-0.01-2.21,0.96-2.07,2.07
				c1.01,8.13,2.28,18.06-4.34,24.26c-2.56,2.4-6.12,3.79-9.58,2.68c-3.36-1.08-5.83-4.28-7-7.49c-1.83-5.06-1.21-10.63-0.69-15.87
				C589.11,11.52,584.96,11.53,584.7,14.17L584.7,14.17z"/>
		</g>
		<g>
			<path d="M674.95,5.56c-4.61,0.57-9.83,1.36-12.68,5.48c-2.41,3.47-2.28,8.75,1.62,11.09c1.92,1.15,4.23,1.19,6.39,1.08
				c2-0.1,4.56-0.57,6.32,0.67c3.51,2.47,2.27,7.59-0.23,10.23c-4.14,4.35-10.91,5.99-16.71,6.11c-2.66,0.06-2.67,4.2,0,4.14
				c8.77-0.18,22.16-4.21,23.2-14.68c0.4-4.02-1.55-8.4-5.41-10c-2.12-0.88-4.42-0.77-6.66-0.64c-1.77,0.1-4.56,0.5-5.65-1.31
				c-1.13-1.9,0.25-4.51,1.82-5.66c2.26-1.66,5.29-2.02,7.98-2.36C677.56,9.38,677.59,5.23,674.95,5.56L674.95,5.56z"/>
		</g>
		<g>
			<path d="M738.69,9.58c-0.09,10.5-0.17,21.01-0.26,31.51c-0.02,2.67,4.12,2.67,4.14,0c0.09-10.5,0.17-21.01,0.26-31.51
				C742.86,6.91,738.71,6.91,738.69,9.58L738.69,9.58z"/>
		</g>
		<g>
			<path d="M780.41,10.19c-0.54,4.64-0.73,9.31-0.52,13.97c0.19,4.15,0.31,8.83,1.85,12.75c1.42,3.61,4.43,6,8.26,6.65
				c4.31,0.73,8.43-0.72,12.38-2.28c2.45-0.97,1.38-4.98-1.1-4c-3.25,1.28-6.84,2.82-10.41,2.24c-3.42-0.56-5.15-2.89-5.86-6.13
				c-1.63-7.46-1.34-15.67-0.46-23.2c0.13-1.12-1.05-2.06-2.07-2.07C781.26,8.11,780.54,9.09,780.41,10.19L780.41,10.19z"/>
		</g>
		<g>
			<path d="M782.91,24.57c4.7-0.34,9.4-0.68,14.1-1.02c1.12-0.08,2.07-0.89,2.07-2.07c0-1.06-0.95-2.15-2.07-2.07
				c-4.7,0.34-9.4,0.68-14.1,1.02c-1.12,0.08-2.07,0.89-2.07,2.07C780.84,23.56,781.79,24.66,782.91,24.57L782.91,24.57z"/>
		</g>
		<g>
			<path d="M782.41,11.34c6.77-1.93,13.55-3.85,20.32-5.78c2.56-0.73,1.47-4.73-1.1-4c-6.77,1.93-13.55,3.85-20.32,5.78
				C778.75,8.07,779.84,12.07,782.41,11.34L782.41,11.34z"/>
		</g>
		<g>
			<path d="M853.61,6.67c0.36,11.5,1.1,22.98,2.2,34.44c0.14,1.45,1.2,2.22,2.62,2c6.67-1.04,13.33-2.07,20-3.11
				c2.63-0.41,1.51-4.4-1.1-4c-6.67,1.04-13.33,2.07-20,3.11c0.87,0.67,1.75,1.33,2.62,2c-1.11-11.45-1.84-22.94-2.2-34.44
				C857.67,4.01,853.53,4,853.61,6.67L853.61,6.67z"/>
		</g>
		<g>
			<path d="M930.11,6.58c0.16,11.29,0.32,22.57,0.48,33.86c0.04,2.66,4.18,2.67,4.14,0c-0.16-11.29-0.32-22.57-0.48-33.86
				C934.22,3.91,930.08,3.91,930.11,6.58L930.11,6.58z"/>
		</g>
		<g>
			<path d="M979.81,6.7c1.7,11.76,3.39,23.52,5.09,35.28c0.38,2.63,4.37,1.51,4-1.1c-1.7-11.76-3.39-23.52-5.09-35.28
				C983.43,2.97,979.44,4.08,979.81,6.7L979.81,6.7z"/>
		</g>
		<g>
			<path d="M987.53,26.87c7.08-5.61,14.16-11.22,21.24-16.83c0.88-0.7,0.73-2.2,0-2.93c-0.87-0.87-2.05-0.7-2.93,0
				c-7.08,5.61-14.16,11.22-21.24,16.83c-0.88,0.7-0.73,2.2,0,2.93C985.47,27.74,986.65,27.57,987.53,26.87L987.53,26.87z"/>
		</g>
		<g>
			<path d="M985.1,26.79c10.13,2.58,19.75,6.66,28.64,12.15c2.28,1.41,4.36-2.18,2.09-3.58c-9.17-5.66-19.19-9.91-29.63-12.57
				C983.61,22.14,982.51,26.13,985.1,26.79L985.1,26.79z"/>
		</g>
	</g>
</g>
<g id="Warstwa_5">
</g>
<g id="Warstwa_6">
</g>
<g id="Warstwa_7">
</g>
</svg>
